<?xml version="1.0" standalone="no"?>
<!DOCTYPE svg PUBLIC "-//W3C//DTD SVG 20010904//EN"
 "http://www.w3.org/TR/2001/REC-SVG-20010904/DTD/svg10.dtd">
<svg version="1.0" xmlns="http://www.w3.org/2000/svg"
 width="700.000000pt" height="700.000000pt" viewBox="0 0 700.000000 700.000000"
 preserveAspectRatio="xMidYMid meet">
<metadata>
Created by potrace 1.14, written by Peter Selinger 2001-2017
</metadata>
<g transform="translate(0.000000,700.000000) scale(0.100000,-0.100000)"
fill="#000000" stroke="none">
<path d="M5650 6719 c-190 -230 -480 -469 -821 -677 l-65 -40 -115 77 c-185
124 -423 239 -654 318 -97 33 -286 83 -314 83 -7 0 38 -37 100 -82 201 -144
449 -412 533 -575 l16 -32 -207 -102 c-242 -119 -393 -189 -393 -184 0 7 164
142 224 183 l58 41 -61 17 c-33 10 -61 20 -61 24 0 4 9 33 20 66 12 32 23 91
27 129 9 117 -37 257 -115 345 l-37 42 0 -89 c-1 -97 -20 -159 -86 -270 -54
-89 -200 -237 -292 -293 -87 -53 -221 -114 -240 -107 -6 2 17 23 51 46 103 69
237 187 306 267 79 92 121 152 113 160 -8 9 -208 23 -327 23 l-95 1 -37 73
c-104 202 -341 378 -582 432 -27 6 -24 1 37 -64 116 -123 207 -306 230 -462
31 -218 -67 -427 -270 -577 -110 -80 -121 -81 -58 -7 131 155 201 272 230 382
19 71 19 123 2 123 -48 0 -386 -111 -509 -167 l-78 -36 -65 17 c-88 22 -441
92 -535 106 -93 14 -534 25 -621 16 l-64 -7 192 -193 c117 -118 194 -202 198
-219 6 -22 -14 -66 -110 -244 -65 -120 -161 -292 -213 -383 -111 -193 -269
-500 -335 -652 -100 -231 -166 -463 -212 -753 -23 -139 -33 -177 -56 -215 -44
-72 -125 -247 -153 -330 -47 -144 -59 -231 -53 -390 8 -215 52 -404 129 -555
l26 -49 7 104 c17 244 94 398 230 461 22 10 52 19 67 19 24 0 28 -5 34 -37 39
-227 160 -504 334 -765 119 -179 199 -277 360 -441 267 -273 526 -461 861
-621 299 -143 516 -206 860 -252 166 -21 527 -29 679 -15 251 25 553 91 726
159 124 49 204 75 210 69 5 -5 -133 -108 -251 -188 -100 -66 -324 -199 -445
-262 -50 -27 -90 -50 -88 -53 2 -2 103 16 224 41 307 62 464 109 794 238 864
338 1523 1008 1813 1845 128 368 175 672 164 1067 -8 292 -39 480 -122 730
-72 217 -158 360 -299 500 -105 105 -222 186 -391 272 -344 175 -701 297
-1029 353 -66 11 -121 22 -123 24 -2 2 33 34 79 71 348 285 575 646 656 1041
25 119 45 325 40 413 l-3 63 -45 -53z m-372 -629 c-181 -255 -245 -325 -433
-475 -159 -127 -167 -132 -805 -475 -156 -83 -302 -179 -378 -245 -29 -26 -82
-92 -119 -148 -88 -133 -116 -162 -244 -258 -60 -44 -107 -84 -104 -89 3 -5
27 -2 53 6 120 38 316 83 405 94 78 10 131 10 259 0 165 -13 475 -8 551 9 20
5 37 6 37 2 0 -10 -127 -103 -197 -144 -93 -54 -184 -91 -385 -159 -189 -63
-341 -118 -336 -123 2 -1 37 2 78 7 93 11 168 4 335 -29 116 -23 147 -25 283
-20 83 2 152 3 152 1 0 -9 -178 -118 -255 -157 -113 -56 -140 -65 -298 -96
-70 -14 -129 -30 -130 -35 -4 -17 99 -65 193 -91 62 -17 134 -28 208 -32 61
-3 112 -9 112 -14 0 -13 -269 -96 -385 -119 -136 -28 -369 -38 -456 -21 -34 7
-63 10 -66 7 -3 -2 17 -28 43 -57 54 -57 111 -88 164 -89 44 0 32 -11 -52 -43
-129 -51 -229 -46 -282 12 -29 32 -34 26 -25 -26 13 -66 48 -99 134 -125 102
-32 223 -30 339 6 49 15 91 25 93 22 9 -8 -156 -110 -257 -158 -293 -139 -283
-133 -357 -211 -75 -79 -130 -174 -139 -242 -11 -79 -14 -88 -28 -76 -8 7 -19
25 -26 41 -7 17 -16 30 -20 30 -14 0 9 -81 56 -198 25 -63 43 -116 40 -119 -2
-3 -46 37 -97 88 -87 90 -91 92 -84 59 12 -58 74 -183 108 -219 l32 -34 -44 7
c-53 8 -158 56 -201 92 -48 41 -35 18 28 -48 l57 -60 -69 4 -69 4 45 -40 c24
-23 76 -59 114 -81 63 -37 66 -40 40 -43 -44 -5 -184 27 -253 58 -35 16 -103
53 -150 81 l-87 52 38 14 c59 20 131 78 186 151 72 95 170 300 233 487 30 88
79 209 109 269 l54 108 17 -43 c9 -24 28 -57 41 -74 l24 -29 7 104 c11 173 53
490 64 490 3 -1 21 -34 40 -75 19 -41 37 -72 41 -70 4 2 10 29 13 58 4 46 31
137 62 211 8 18 5 19 -61 13 -41 -4 -143 0 -249 10 -244 22 -327 13 -507 -58
-225 -89 -331 -148 -569 -319 -167 -121 -419 -239 -619 -291 -83 -21 -209 -24
-253 -4 -17 7 -18 4 -11 -31 4 -22 14 -70 24 -108 17 -66 17 -68 -1 -45 -45
60 -92 268 -91 404 2 134 73 287 164 354 36 26 51 31 102 31 l60 0 -43 -36
c-23 -20 -40 -38 -38 -40 2 -3 24 7 48 21 41 23 54 25 184 26 77 0 163 4 190
8 l50 7 -64 7 c-83 9 -133 24 -167 52 l-28 22 49 35 c81 59 252 107 385 108
l54 0 -39 -40 c-22 -22 -56 -52 -77 -67 -21 -14 -37 -28 -35 -29 4 -5 161 63
248 106 35 18 88 50 116 71 58 43 57 45 14 -54 -12 -27 -21 -50 -21 -53 0 -2
21 10 46 26 55 34 97 48 257 85 171 39 293 91 445 192 46 30 82 57 80 59 -2 2
-31 -3 -63 -11 -33 -8 -71 -14 -84 -15 -22 0 -21 3 21 48 63 68 159 212 127
191 -13 -9 -46 -28 -73 -44 -43 -25 -47 -26 -38 -8 22 41 151 149 233 196 74
42 81 47 54 48 -289 12 -546 -122 -843 -440 -138 -147 -182 -176 -270 -176
-56 0 -66 3 -84 25 -18 23 -20 36 -16 132 3 59 3 107 2 105 -1 -1 -19 -31 -40
-67 -43 -73 -115 -155 -156 -176 -38 -20 -75 -17 -99 7 -19 19 -21 30 -17 128
3 94 7 112 33 159 16 30 43 65 60 79 l30 26 6 -45 c4 -25 16 -65 27 -89 l19
-44 7 70 c27 281 110 516 266 749 39 58 73 106 74 106 2 0 -7 -26 -19 -57 -42
-105 -59 -215 -60 -383 0 -228 9 -231 79 -24 77 228 118 310 214 424 97 116
182 197 334 316 l116 91 -42 -66 c-101 -158 -215 -399 -204 -431 2 -6 34 12
71 40 147 111 476 310 690 416 62 31 103 47 92 36 -11 -11 -112 -97 -225 -192
-302 -256 -421 -361 -561 -500 -115 -113 -226 -246 -215 -257 2 -2 75 47 162
109 189 135 280 198 290 198 3 0 3 -20 -1 -45 -3 -26 -3 -60 0 -77 l7 -31 34
64 c57 106 140 207 284 344 l42 40 -6 -65 c-3 -36 -2 -90 2 -120 l8 -55 18 55
c25 76 81 181 120 226 l33 38 6 -40 c4 -22 12 -48 19 -57 13 -17 20 -14 96 37
45 30 160 93 255 138 346 166 766 379 922 468 254 146 548 345 680 463 22 20
43 36 47 37 4 0 -70 -108 -164 -240z m-468 -752 c-36 -33 -113 -100 -171 -149
-117 -97 -289 -273 -355 -361 -40 -54 -66 -110 -78 -168 l-5 -25 -128 3 c-70
2 -193 -1 -273 -6 -80 -6 -147 -8 -149 -6 -9 8 153 165 229 224 165 126 313
212 690 402 162 81 297 148 300 148 3 -1 -24 -28 -60 -62z m-3490 -247 c-82
-212 -174 -493 -220 -674 -57 -226 -81 -380 -87 -565 -5 -150 -8 -166 -28
-190 -34 -41 -65 -103 -72 -146 -10 -62 -20 -23 -33 129 -42 470 66 930 310
1330 46 75 183 275 187 271 1 -1 -25 -71 -57 -155z m4284 -325 c251 -131 485
-279 608 -383 258 -220 417 -578 458 -1033 12 -126 10 -298 -1 -270 -4 8 -14
69 -23 135 -34 258 -88 367 -366 740 -226 304 -518 617 -789 848 -25 20 -41
37 -36 37 5 0 72 -33 149 -74z m-131 -363 c535 -437 605 -512 803 -868 254
-456 311 -791 204 -1200 -38 -143 -177 -466 -231 -536 -17 -21 -16 -16 5 46
64 190 71 242 68 485 -3 261 -11 308 -81 500 -250 689 -511 1161 -913 1658
-33 39 -56 72 -53 72 4 0 93 -71 198 -157z m-240 -218 c201 -202 461 -612 672
-1065 162 -347 195 -450 231 -735 30 -240 2 -476 -93 -783 -23 -75 -33 -91
-118 -190 -99 -115 -263 -278 -385 -382 -160 -136 -400 -300 -440 -300 -8 0
12 27 47 60 109 105 189 222 287 418 136 274 188 435 240 747 66 392 82 650
51 831 -41 238 -106 394 -511 1223 -85 173 -154 316 -154 318 0 12 103 -73
173 -142z m-242 -263 c150 -227 282 -542 329 -787 21 -113 34 -274 48 -615 l9
-195 -229 -297 c-126 -164 -231 -298 -232 -298 -2 0 13 40 35 89 105 244 163
583 175 1031 9 318 -4 461 -60 641 -24 79 -70 230 -101 334 -30 105 -58 196
-60 203 -11 32 20 -7 86 -106z m-176 -267 c65 -135 124 -287 150 -389 58 -229
45 -558 -35 -862 -38 -147 -48 -171 -127 -314 -137 -246 -204 -355 -311 -505
-296 -416 -571 -683 -887 -860 -65 -37 -60 -32 65 61 123 91 302 268 416 409
387 485 633 1035 698 1565 59 476 45 719 -60 1046 -16 51 33 -31 91 -151z
m-1956 -93 c18 -34 13 -34 -32 -4 -46 32 -127 116 -127 131 0 5 21 13 48 16
26 3 54 7 62 8 11 2 18 -15 26 -64 6 -36 17 -75 23 -87z m-234 48 c0 -44 -3
-80 -7 -80 -6 0 -65 45 -127 97 -8 6 8 15 71 39 35 12 63 23 63 23 0 1 0 -35
0 -79z m-180 -145 l8 -39 -29 19 c-47 30 -114 87 -114 96 0 5 26 22 58 38 l57
29 6 -52 c4 -28 10 -69 14 -91z m-182 6 c3 -22 16 -65 30 -95 14 -31 22 -58
18 -61 -18 -10 -175 98 -169 117 3 8 99 77 109 77 4 1 9 -17 12 -38z m2203
-185 c19 -107 13 -154 -26 -222 -60 -106 -169 -203 -322 -287 -73 -41 -83 -44
-75 -23 3 8 11 80 18 161 l12 146 53 35 c110 73 227 223 265 339 l23 68 18
-64 c10 -35 25 -104 34 -153z m-197 162 c-36 -72 -106 -164 -161 -212 l-52
-45 -17 69 c-10 38 -23 79 -29 90 -9 17 -8 21 7 27 72 25 175 68 213 88 25 13
48 24 53 25 4 0 -2 -19 -14 -42z m-2165 -108 c4 -32 13 -82 20 -110 7 -27 11
-50 9 -50 -21 0 -173 105 -173 120 0 8 119 99 131 100 4 0 9 -27 13 -60z m488
-67 c-46 -66 -45 -79 3 -33 l47 45 -46 -73 c-51 -80 -215 -365 -290 -504 -26
-49 -49 -88 -51 -88 -2 0 13 51 32 113 84 270 147 389 272 520 51 54 61 59 33
20z m-670 -90 c11 -24 42 -71 68 -105 27 -35 47 -64 45 -66 -7 -8 -94 22 -140
48 -59 34 -154 119 -140 126 6 2 37 22 70 43 58 37 60 37 69 17 5 -12 18 -40
28 -63z m-240 -130 c4 -65 14 -123 30 -170 14 -40 21 -73 17 -73 -4 0 -34 21
-68 46 -70 53 -135 123 -162 177 l-20 38 28 10 c15 5 57 23 93 38 36 16 68 29
71 30 3 1 9 -43 11 -96z m-261 -159 c6 -28 26 -84 45 -124 19 -40 33 -74 31
-76 -2 -2 -35 18 -73 45 -86 60 -158 138 -193 209 -29 59 -23 71 34 73 17 0
53 6 80 13 l50 11 8 -50 c5 -27 13 -73 18 -101z m1335 120 c46 -15 84 -27 84
-28 0 -9 -34 -103 -40 -109 -8 -10 -104 93 -126 134 -8 16 -12 29 -8 29 3 0
44 -12 90 -26z m-474 -166 c-155 -318 -333 -547 -554 -714 -202 -151 -381
-203 -553 -159 -50 13 -50 13 60 14 165 2 260 32 385 124 123 91 243 232 542
639 100 136 184 246 186 243 2 -2 -28 -68 -66 -147z m400 7 c29 -14 64 -25 77
-25 20 0 22 -3 16 -27 -3 -16 -15 -48 -26 -72 l-20 -45 -43 43 c-44 43 -116
154 -116 179 0 9 8 7 29 -7 16 -12 53 -32 83 -46z m1798 -100 c-15 -110 -51
-227 -85 -277 -32 -47 -124 -93 -229 -114 -73 -15 -84 -15 -146 0 -38 9 -75
16 -83 16 -13 0 -10 18 19 102 18 55 40 111 48 123 9 14 44 34 88 50 139 51
232 102 313 173 78 67 80 68 83 43 2 -14 -1 -66 -8 -116z m-1942 -38 c20 -13
64 -34 97 -47 33 -13 64 -27 69 -31 10 -8 -43 -111 -61 -116 -6 -3 -35 29 -63
69 -53 74 -95 148 -85 148 3 0 22 -10 43 -23z m22 -228 c25 -7 49 -15 53 -19
4 -4 -10 -30 -33 -59 l-41 -52 -37 30 c-20 16 -51 53 -69 83 -54 90 -54 92 18
59 35 -16 84 -35 109 -42z m-259 -113 c28 -14 82 -33 120 -43 38 -9 69 -21 69
-25 0 -14 -79 -58 -126 -70 l-47 -13 -44 50 c-49 56 -103 156 -103 191 0 21 4
19 41 -21 22 -24 63 -55 90 -69z m2019 -207 c-122 -277 -275 -435 -460 -478
-97 -22 -370 -8 -370 20 0 5 26 42 58 82 70 86 155 207 240 338 l62 96 82 -18
c46 -10 106 -19 133 -19 68 0 175 24 238 53 29 13 53 23 55 22 1 -1 -16 -45
-38 -96z m-914 -604 c16 -8 61 -22 99 -32 96 -24 341 -24 404 0 24 9 45 17 48
17 8 0 -92 -123 -159 -195 -146 -157 -293 -235 -442 -235 -61 0 -186 35 -274
77 l-76 36 85 76 c46 41 129 119 184 173 55 54 100 98 101 98 0 0 14 -7 30
-15z m-365 -534 c111 -51 154 -63 264 -70 l90 -6 -85 -64 c-109 -82 -235 -142
-382 -181 -130 -34 -121 -35 -283 16 -95 30 -255 96 -255 104 0 4 49 28 109
54 121 52 310 157 368 204 l38 31 25 -24 c14 -13 64 -42 111 -64z"/>
<path d="M1355 3621 c-51 -23 -111 -89 -125 -138 -6 -21 -10 -73 -8 -116 l3
-79 42 59 c106 151 204 232 282 234 l46 1 -85 29 c-98 34 -103 34 -155 10z"/>
<path d="M1740 3520 c-8 -6 -46 -22 -83 -36 -50 -19 -86 -43 -133 -87 -36 -33
-63 -62 -60 -64 2 -3 31 13 63 34 108 73 154 97 163 84 5 -9 17 0 40 29 33 41
37 57 10 40z"/>
<path d="M5439 5574 c-52 -63 -59 -78 -48 -89 8 -7 68 -60 134 -117 131 -114
265 -251 305 -311 14 -20 30 -37 35 -37 22 0 316 -153 413 -214 l103 -65 -57
82 c-187 267 -451 539 -742 765 l-81 62 -62 -76z"/>
</g>
</svg>
